<svg xmlns="http://www.w3.org/2000/svg" width="476.76" height="33.43" viewBox="0 0 476.76 33.43"><defs><style>.a{fill:#005c95;}.b{fill:#0d2f4f;}</style></defs><g transform="translate(-29.11 -28.77)"><path class="a" d="M202.71,29.25V42.48h5.94V29.25h5.58V61.74h-5.58V47.34h-5.94v14.4h-5.58V29.25Z"/><path class="a" d="M233.75,45.86v4.72H223.13v3.69c0,2.48.94,3.78,2.79,3.78,1.35,0,2.79-.54,2.79-4.05v-.45h5.04c-.14,5.94-2.83,8.64-7.83,8.64-5.27,0-7.83-3.2-7.83-8.82v-7.2c0-6.07,2.61-9.09,7.83-9.09C231.23,37.08,233.75,40.32,233.75,45.86Zm-5.04.58V45.4c0-3.28-1.12-4.18-2.79-4.18-1.75,0-2.79,1.21-2.79,3.78v1.44h5.58Z"/><path class="a" d="M252.23,43.56V59.13a11.5,11.5,0,0,0,.31,2.61h-4.81c0-.31-.14-.94-.27-1.89a8.464,8.464,0,0,1-5.9,2.34c-3.19,0-5.13-2.12-5.13-5.44,0-5.13,3.19-8.15,10.75-10.98V44.33c0-1.67-.54-3.1-2.52-3.1-1.89,0-2.75.94-2.83,3.42h-5.04c.22-4.73,3.24-7.56,8.1-7.56C249.8,37.08,252.23,39.47,252.23,43.56Zm-8.41,14.49a4.42,4.42,0,0,0,3.38-2.25V49.46c-3.46,2.02-5.71,3.6-5.71,6.39C241.48,57.42,242.33,58.05,243.82,58.05Z"/><path class="a" d="M261.4,29.25V61.74h-5.04V29.25Z"/><path class="a" d="M271.16,31.01v6.52h3.37v4.14h-3.37V55.71c0,1.08.45,1.89,1.75,1.89h1.62v4.32a9.176,9.176,0,0,1-2.47.27c-4,0-5.94-1.98-5.94-5.35V41.67h-2.79V37.53h2.79V31.01h5.04Z"/><path class="a" d="M281.86,29.25V39.78c2.43-2.29,3.78-2.7,5.8-2.7,2.79,0,4.27,2.02,4.27,4.95V61.74h-5.04V42.89a1.58,1.58,0,0,0-1.8-1.67,5.879,5.879,0,0,0-3.24,1.53V61.74h-5.04V29.25Z"/><path class="a" d="M311.18,45.81h-5.04V45.4c0-3.1-.99-4.18-2.79-4.18-1.85,0-2.79,1.3-2.79,3.78v9.27c0,2.48.94,3.78,2.79,3.78s2.79-1.21,2.79-3.91V52.56h5.04v.5c0,6.16-2.65,9.13-7.83,9.13-5.27,0-7.83-3.2-7.83-8.82v-7.2c0-6.07,2.66-9.09,7.83-9.09C308.44,37.08,311.05,39.92,311.18,45.81Z"/><path class="a" d="M329.67,43.56V59.13a11.5,11.5,0,0,0,.31,2.61h-4.81c0-.31-.14-.94-.27-1.89a8.464,8.464,0,0,1-5.9,2.34c-3.19,0-5.13-2.12-5.13-5.44,0-5.13,3.19-8.15,10.75-10.98V44.33c0-1.67-.54-3.1-2.52-3.1-1.89,0-2.75.94-2.83,3.42h-5.04c.22-4.73,3.24-7.56,8.1-7.56C327.24,37.08,329.67,39.47,329.67,43.56Zm-8.42,14.49a4.42,4.42,0,0,0,3.38-2.25V49.46c-3.46,2.02-5.71,3.6-5.71,6.39C318.91,57.42,319.77,58.05,321.25,58.05Z"/><path class="a" d="M345.41,42.35a12.285,12.285,0,0,0-3.2-.5,3.2,3.2,0,0,0-3.42,3.1V61.73h-5.04V37.53h4.81v2.83h.09a6.463,6.463,0,0,1,5.99-3.29h.76v5.28Z"/><path class="a" d="M363.13,45.86v4.72H352.51v3.69c0,2.48.94,3.78,2.79,3.78,1.35,0,2.79-.54,2.79-4.05v-.45h5.04c-.13,5.94-2.83,8.64-7.83,8.64-5.26,0-7.83-3.2-7.83-8.82v-7.2c0-6.07,2.61-9.09,7.83-9.09C360.61,37.08,363.13,40.32,363.13,45.86Zm-5.04.58V45.4c0-3.28-1.12-4.18-2.79-4.18-1.75,0-2.79,1.21-2.79,3.78v1.44h5.58Z"/><path class="b" d="M45.94,37.62V40.1H40.36V37.62c0-2.43-.99-3.96-2.7-3.96-2.11,0-2.97,1.04-2.97,3.42V53.86c0,2.38.85,3.46,2.97,3.46,2.21,0,2.7-1.44,2.7-3.15V50.12h5.58V54c0,4.59-2.92,8.19-8.28,8.19-5.62,0-8.55-3.56-8.55-8.19V36.99c0-4.72,3.02-8.19,8.55-8.19C42.84,28.8,45.94,32.45,45.94,37.62Z"/><path class="b" d="M67.71,36.99V54c0,4.59-2.88,8.19-8.55,8.19-5.62,0-8.55-3.56-8.55-8.19V37.04c0-4.72,2.97-8.23,8.55-8.23C64.7,28.8,67.71,32.27,67.71,36.99ZM56.19,53.87c0,2.38.85,3.46,2.97,3.46,2.34,0,2.97-1.35,2.97-3.46V37.13c0-1.89-.45-3.47-2.97-3.47-1.98,0-2.97.9-2.97,3.42Z"/><path class="b" d="M75.31,29.25l4.05,22.5h.09l4.05-22.5h5.49L82.2,61.74H76.62L69.83,29.25Z"/><path class="b" d="M97.44,29.25V61.74H91.86V29.25Z"/><path class="b" d="M111.06,29.25c5.53,0,8.64,3.29,8.64,9.58V52.15c0,6.34-3.1,9.58-8.64,9.58H102.6V29.25Zm-2.88,27.9h1.89c3.19,0,4.05-1.35,4.05-4.36V38.21c0-3.19-1.03-4.36-4.05-4.36h-1.89Z"/><path class="b" d="M135.41,47.57v4.14H124.39V47.57Z"/><path class="b" d="M144.39,28.8V61.74h-5.04V36h-4.41V32.98a33.781,33.781,0,0,0,6.61-4.18Z"/><path class="b" d="M165.28,37.49V53.51c0,5.76-2.29,8.69-7.92,8.69a6.822,6.822,0,0,1-7.24-7.06V53.03h4.86v1.66c0,2.12.72,3.1,2.39,3.1,1.71,0,2.61-1.08,2.61-2.97V47.08c-1.58,1.67-2.61,2.16-4.59,2.16-3.78,0-5.94-2.52-5.94-6.48V38.44c0-6.52,2.38-9.63,7.92-9.63C162.98,28.8,165.28,31.73,165.28,37.49Zm-5.31-1.31c0-1.84-.85-2.97-2.61-2.97-1.62,0-2.61,1.04-2.61,2.97v5.27c0,2.25.76,3.37,2.34,3.37a5.106,5.106,0,0,0,2.88-1.48Z"/><path class="a" d="M390.94,37.59v2.48h-5.58V37.59c0-2.43-.99-3.96-2.7-3.96-2.12,0-2.97,1.04-2.97,3.42V53.83c0,2.38.86,3.46,2.97,3.46,2.2,0,2.7-1.44,2.7-3.15V50.1h5.58v3.87c0,4.59-2.92,8.19-8.28,8.19-5.62,0-8.55-3.56-8.55-8.19V36.96c0-4.72,3.01-8.19,8.55-8.19C387.83,28.77,390.94,32.42,390.94,37.59Z"/><path class="a" d="M410.73,45.87v7.24c0,5.98-2.61,9.04-7.83,9.04-5.26,0-7.83-3.2-7.83-8.82v-7.2c0-6.07,2.61-9.09,7.83-9.09C408.3,37.05,410.73,40.34,410.73,45.87Zm-10.62,8.37c0,2.48.94,3.78,2.79,3.78,1.89,0,2.79-1.4,2.79-3.78V44.97c0-2.43-.9-3.78-2.79-3.78-1.67,0-2.79,1.08-2.79,3.78Z"/><path class="a" d="M429.21,43.53V59.1a11.242,11.242,0,0,0,.32,2.61h-4.82c0-.31-.13-.94-.27-1.89a8.458,8.458,0,0,1-5.89,2.34c-3.2,0-5.13-2.12-5.13-5.44,0-5.13,3.19-8.15,10.75-10.98V44.3c0-1.67-.54-3.1-2.52-3.1-1.89,0-2.75.94-2.83,3.42h-5.04c.23-4.73,3.24-7.56,8.1-7.56C426.78,37.05,429.21,39.44,429.21,43.53Zm-8.42,14.49a4.42,4.42,0,0,0,3.38-2.25V49.43c-3.46,2.02-5.71,3.6-5.71,6.39C418.45,57.39,419.31,58.02,420.79,58.02Z"/><path class="a" d="M438.38,29.22V61.71h-5.04V29.22Z"/><path class="a" d="M447.37,29.22v4.59h-5.04V29.22h5.04Zm0,8.28V61.71h-5.04V37.5Z"/><path class="a" d="M457.12,30.98V37.5h3.38v4.14h-3.38V55.68c0,1.08.45,1.89,1.75,1.89h1.62v4.32a9.176,9.176,0,0,1-2.47.27c-4,0-5.94-1.98-5.94-5.35V41.64h-2.79V37.5h2.79V30.98Z"/><path class="a" d="M467.87,29.22v4.59h-5.04V29.22h5.04Zm0,8.28V61.71h-5.04V37.5Z"/><path class="a" d="M487.16,45.87v7.24c0,5.98-2.61,9.04-7.83,9.04-5.26,0-7.83-3.2-7.83-8.82v-7.2c0-6.07,2.61-9.09,7.83-9.09C484.73,37.05,487.16,40.34,487.16,45.87Zm-10.62,8.37c0,2.48.95,3.78,2.79,3.78,1.89,0,2.79-1.4,2.79-3.78V44.97c0-2.43-.9-3.78-2.79-3.78-1.67,0-2.79,1.08-2.79,3.78Z"/><path class="a" d="M505.87,42.05V61.71h-5.04V42.86a1.58,1.58,0,0,0-1.8-1.67,5.879,5.879,0,0,0-3.24,1.53V61.71h-5.04V37.5h4.77v2.43c2.74-2.47,3.96-2.88,6.07-2.88C504.39,37.05,505.87,39.12,505.87,42.05Z"/><rect class="b" width="1.5" height="33.01" transform="translate(180.54 28.85)"/></g></svg>