<svg width="42" height="42" xmlns="http://www.w3.org/2000/svg" xmlns:xlink="http://www.w3.org/1999/xlink" overflow="hidden"><defs><clipPath id="clip0"><path d="M619 339 661 339 661 381 619 381Z" fill-rule="evenodd" clip-rule="evenodd"/></clipPath></defs><g clip-path="url(#clip0)" transform="translate(-619 -339)"><path d="M660 360C660 371.046 651.046 380 640 380 628.954 380 620 371.046 620 360 620 348.954 628.954 340 640 340 651.046 340 660 348.954 660 360Z" fill="#0D2F4F" fill-rule="evenodd"/><path d="M639.934 361.017 635.537 359.003C635.346 359.304 635.196 359.629 635.091 359.969L639.714 362.087C639.707 361.725 639.782 361.357 639.934 361.017ZM640.652 360.087C640.654 359.924 640.646 359.761 640.629 359.599L636.628 357.766C636.397 357.966 636.165 358.19 635.953 358.441L640.3 360.431C640.403 360.307 640.521 360.191 640.652 360.086ZM642.012 359.524C642.862 359.431 643.73 359.75 644.278 360.442L645.429 361.899 645.682 361.711C646.119 361.387 646.737 361.46 647.064 361.873L649.803 365.339C650.13 365.752 650.041 366.349 649.604 366.672L645.036 370.056C644.6 370.379 643.982 370.306 643.656 369.894L640.916 366.427C640.589 366.015 640.678 365.417 641.114 365.094L641.368 364.906 640.453 363.748C639.549 364.704 638.5 365.285 638.008 365.525L637.926 365.388C637.709 365.06 637.472 364.745 637.217 364.446L637.196 364.394C637.531 364.242 637.853 364.065 638.16 363.864L635.214 362.514C635.449 363.159 635.771 363.771 636.17 364.331 636.274 364.481 636.405 364.641 636.543 364.807 636.572 364.843 636.598 364.877 636.628 364.912 636.868 365.202 637.14 365.532 637.386 365.915 638.084 367.013 638.562 368.568 637.443 371L636.192 370.427C636.229 370.345 636.263 370.265 636.297 370.185L631.362 367.925C631.323 368.005 631.285 368.083 631.251 368.16L631.213 368.145 630.03 367.603 630 367.587C630.433 366.651 631.275 365.077 633.626 364.405 633.817 364.775 634.035 365.147 634.298 365.525 634.314 365.548 634.332 365.57 634.348 365.595L634.356 365.627C633.861 365.731 633.384 365.911 632.944 366.16L636.703 367.882C636.573 366.999 636.064 366.384 635.565 365.782 635.379 365.565 635.203 365.34 635.037 365.108 633.686 363.165 633.257 361.312 633.765 359.6 634.416 357.405 636.422 356.12 637.368 355.62 637.612 356.004 637.884 356.334 638.125 356.623 638.155 356.659 638.181 356.693 638.212 356.728 638.006 356.828 637.65 357.019 637.245 357.296L640.457 358.767C640.26 358.107 639.921 357.419 639.423 356.704 639.297 356.523 639.136 356.328 638.966 356.123 638.035 355.001 636.628 353.307 638.164 350L639.416 350.573C639.39 350.629 639.369 350.68 639.346 350.735L644.286 352.998 644.359 352.838 645.61 353.411C645.228 354.236 644.533 355.728 642.124 356.427 641.955 356.122 641.773 355.817 641.557 355.507 641.488 355.408 641.415 355.311 641.339 355.217 641.802 355.119 642.25 354.961 642.673 354.748L638.875 353.008C638.968 353.969 639.502 354.62 640.03 355.253 640.218 355.482 640.397 355.698 640.557 355.928 641.419 357.168 641.906 358.37 642.013 359.524ZM642.022 360.381C641.995 360.737 641.931 361.088 641.828 361.434 641.652 362.021 641.377 362.574 641.015 363.07L642.079 364.38 644.718 362.425 643.567 360.968C643.196 360.51 642.606 360.285 642.022 360.381ZM632.308 366.621C632.061 366.846 631.865 367.087 631.704 367.328L636.535 369.541C636.634 369.214 636.691 368.917 636.716 368.641L632.308 366.621ZM634.962 360.663C634.931 360.996 634.942 361.332 634.996 361.662L638.798 363.404C639.05 363.202 639.287 362.982 639.506 362.744L634.962 360.663ZM639.098 351.375C638.992 351.695 638.923 351.99 638.888 352.263L643.341 354.303C643.58 354.1 643.787 353.863 643.956 353.6L639.098 351.375ZM646.595 367.255C646.827 367.096 646.885 366.781 646.725 366.551 646.72 366.544 646.715 366.537 646.709 366.53L645.92 365.543C646.02 365.263 645.981 364.947 645.785 364.701 645.467 364.304 644.862 364.237 644.435 364.551 644.006 364.865 643.915 365.441 644.233 365.838 644.43 366.079 644.734 366.208 645.045 366.183L645.835 367.171C646.026 367.396 646.36 367.433 646.595 367.255Z" fill="#FFFFFF" fill-rule="evenodd"/></g></svg>