<svg width="42" height="42" xmlns="http://www.w3.org/2000/svg" xmlns:xlink="http://www.w3.org/1999/xlink" overflow="hidden"><defs><clipPath id="clip0"><path d="M708 309 750 309 750 351 708 351Z" fill-rule="evenodd" clip-rule="evenodd"/></clipPath></defs><g clip-path="url(#clip0)" transform="translate(-708 -309)"><path d="M749 330C749 341.046 740.046 350 729 350 717.954 350 709 341.046 709 330 709 318.954 717.954 310 729 310 740.046 310 749 318.954 749 330Z" fill="#0D2F4F" fill-rule="evenodd"/><path d="M735.347 331.141C735.677 332.117 736.737 332.64 737.713 332.309 737.721 332.306 737.728 332.303 737.736 332.301 738.716 331.94 739.225 330.859 738.878 329.873 738.547 328.897 737.487 328.375 736.512 328.706 736.504 328.709 736.496 328.711 736.488 328.714 735.952 328.908 735.532 329.334 735.347 329.873L732.735 329.873 732.735 326.704C732.739 325.151 733.852 323.831 735.363 323.585 735.717 324.556 736.79 325.055 737.76 324.701 737.769 324.697 737.778 324.694 737.787 324.691 738.762 324.306 739.246 323.209 738.875 322.229 738.521 321.259 737.448 320.76 736.477 321.114 736.468 321.117 736.459 321.121 736.45 321.124 735.915 321.333 735.503 321.773 735.331 322.321 733.143 322.586 731.494 324.468 731.486 326.704L731.486 329.873 727.74 329.873 727.74 328.605C727.74 327.205 726.622 326.07 725.243 326.07L721.497 326.07C720.118 326.07 719 327.205 719 328.605L719 332.409C719 333.809 720.118 334.944 721.497 334.944L725.243 334.944C726.623 334.944 727.74 333.809 727.74 332.409L727.74 331.141 731.486 331.141 731.486 334.31C731.494 336.547 733.143 338.427 735.331 338.693 735.636 339.673 736.679 340.221 737.659 339.915 737.667 339.913 737.675 339.91 737.683 339.908 738.663 339.585 739.199 338.516 738.88 337.52 738.575 336.539 737.533 335.992 736.552 336.297 736.544 336.299 736.536 336.302 736.528 336.304 735.992 336.481 735.565 336.894 735.363 337.428 733.853 337.183 732.739 335.863 732.735 334.31L732.735 331.141 735.347 331.141Z" fill="#FFFFFF" fill-rule="evenodd"/></g></svg>