<svg width="41" height="41" xmlns="http://www.w3.org/2000/svg" xmlns:xlink="http://www.w3.org/1999/xlink" overflow="hidden"><defs><clipPath id="clip0"><path d="M717 388 758 388 758 429 717 429Z" fill-rule="evenodd" clip-rule="evenodd"/></clipPath></defs><g clip-path="url(#clip0)" transform="translate(-717 -388)"><path d="M758 408C758 419.046 749.046 428 738 428 726.954 428 718 419.046 718 408 718 396.954 726.954 388 738 388 749.046 388 758 396.954 758 408Z" fill="#0D2F4F" fill-rule="evenodd"/><path d="M732.594 402.101C732.251 402.1 731.972 401.801 731.972 401.433L731.972 398.642C731.986 398.273 732.275 397.986 732.619 398.001 732.944 398.014 733.204 398.293 733.217 398.642L733.217 401.433C733.217 401.802 732.938 402.1 732.594 402.101ZM743.405 402.101C743.061 402.1 742.783 401.802 742.782 401.433L742.782 398.642C742.796 398.273 743.085 397.986 743.429 398.001 743.754 398.014 744.014 398.293 744.027 398.642L744.027 401.433C744.027 401.801 743.749 402.101 743.405 402.101ZM744.904 415.156 744.904 406.038C744.904 405.673 744.601 405.378 744.225 405.378L731.774 405.378C731.399 405.378 731.095 405.673 731.095 406.037L731.095 415.156C731.095 415.521 731.399 415.815 731.774 415.815L744.225 415.815C744.6 415.815 744.904 415.521 744.904 415.156ZM745.301 400.28C746.239 400.28 747 401.095 747 402.101L747 416.18C747 417.185 746.239 418 745.301 418L730.698 418C729.76 418 729 417.185 729 416.179L729 402.1C729 401.095 729.76 400.28 730.698 400.28L731.292 400.28 731.292 401.433C731.292 402.203 731.876 402.83 732.594 402.83 733.312 402.83 733.896 402.203 733.896 401.433L733.896 400.28 742.103 400.28 742.103 401.433C742.103 402.203 742.687 402.83 743.405 402.83 744.123 402.83 744.707 402.203 744.707 401.433L744.707 400.28 745.301 400.28ZM732.284 410.13 732.284 406.515 735.579 406.515 735.579 410.13 732.285 410.13ZM736.432 410.13 736.432 406.515 739.726 406.515 739.726 410.13 736.432 410.13ZM732.285 414.572 732.285 410.958 735.579 410.958 735.579 414.572 732.285 414.572ZM736.432 414.572 736.432 410.958 739.726 410.958 739.726 414.572 736.432 414.572ZM740.733 410.13 740.733 406.515 744.027 406.515 744.027 410.13 740.733 410.13ZM740.733 414.572 740.733 410.958 744.027 410.958 744.027 414.572 740.733 414.572Z" fill="#FFFFFF" fill-rule="evenodd"/></g></svg>