<svg width="41" height="41" xmlns="http://www.w3.org/2000/svg" xmlns:xlink="http://www.w3.org/1999/xlink" overflow="hidden"><defs><clipPath id="clip0"><path d="M842 343 883 343 883 384 842 384Z" fill-rule="evenodd" clip-rule="evenodd"/></clipPath></defs><g clip-path="url(#clip0)" transform="translate(-842 -343)"><path d="M882 363C882 374.046 873.046 383 862 383 850.954 383 842 374.046 842 363 842 351.954 850.954 343 862 343 873.046 343 882 351.954 882 363Z" fill="#0D2F4F" fill-rule="evenodd"/><path d="M867 358.8C867 361.35 864.997 362.912 863.164 363.442L863.164 364.538C863.164 365.374 862.469 366.113 861.571 366.113 860.586 366.113 859.981 365.323 859.981 364.498L859.979 362.414C859.979 361.648 860.39 361.143 861.224 360.868 862.717 360.376 863.662 359.815 863.662 358.762 863.662 357.387 862.321 357.202 861.625 357.378 860.572 357.648 859.972 358.234 859.444 358.647 858.786 359.173 857.849 359.04 857.345 358.35 856.824 357.652 856.882 356.578 857.594 355.989 858.542 355.205 860.029 353.78 862.808 354.029 865.249 354.247 866.999 356.401 866.999 358.8ZM861.52 368.297C862.487 368.273 863.289 369.082 863.312 370.105 863.334 371.127 862.568 371.976 861.601 371.999 861.574 372 861.547 372 861.52 371.999 860.552 371.976 859.786 371.127 859.809 370.105 859.83 369.116 860.584 368.32 861.52 368.297Z" fill="#FFFFFF" fill-rule="evenodd"/></g></svg>