<svg width="42" height="41" xmlns="http://www.w3.org/2000/svg" xmlns:xlink="http://www.w3.org/1999/xlink" overflow="hidden"><defs><clipPath id="clip0"><path d="M713 446 755 446 755 487 713 487Z" fill-rule="evenodd" clip-rule="evenodd"/></clipPath></defs><g clip-path="url(#clip0)" transform="translate(-713 -446)"><path d="M754 466C754 477.046 745.046 486 734 486 722.954 486 714 477.046 714 466 714 454.954 722.954 446 734 446 745.046 446 754 454.954 754 466Z" fill="#0D2F4F" fill-rule="evenodd"/><path d="M736.251 467.719 731.786 465.048 736.075 457.554 740.54 460.226 736.251 467.719ZM742.62 459.005 736.094 455.101C735.689 454.857 735.124 455.071 734.835 455.579 734.544 456.086 734.639 456.694 735.046 456.937L735.492 457.204 726.433 473.037C726.009 473.773 725.89 474.652 726.104 475.479 726.314 476.305 726.838 477.012 727.56 477.443L727.754 477.559C728.45 477.975 729.3 478.119 730.142 477.894 730.95 477.68 731.641 477.144 732.062 476.406L741.122 460.574 741.57 460.842C741.977 461.084 742.541 460.871 742.832 460.363 743.122 459.856 743.027 459.249 742.62 459.005Z" fill="#FFFFFF" fill-rule="evenodd"/></g></svg>